<mxfile host="app.diagrams.net" modified="2023-05-14T05:16:27.656Z" agent="Mozilla/5.0 (Windows NT 10.0; Win64; x64; rv:109.0) Gecko/20100101 Firefox/113.0" etag="hoBdHyy2gvKIf-L3vCll" version="21.3.0" type="github">
  <diagram name="Page-1" id="wvLXWumKVrcKkqjxwU6J">
    <mxGraphModel dx="954" dy="556" grid="1" gridSize="10" guides="1" tooltips="1" connect="1" arrows="1" fold="1" page="1" pageScale="1" pageWidth="1100" pageHeight="1700" math="0" shadow="0">
      <root>
        <mxCell id="0" />
        <mxCell id="1" parent="0" />
        <mxCell id="BSxhdLfIgos4IuO5vGoB-1" value="Actor" style="shape=umlActor;verticalLabelPosition=bottom;verticalAlign=top;html=1;outlineConnect=0;" vertex="1" parent="1">
          <mxGeometry x="90" y="40" width="30" height="60" as="geometry" />
        </mxCell>
        <mxCell id="BSxhdLfIgos4IuO5vGoB-2" value="Server" style="html=1;whiteSpace=wrap;" vertex="1" parent="1">
          <mxGeometry x="550" y="45" width="110" height="50" as="geometry" />
        </mxCell>
        <mxCell id="BSxhdLfIgos4IuO5vGoB-3" value="Admin panel" style="html=1;whiteSpace=wrap;" vertex="1" parent="1">
          <mxGeometry x="280" y="45" width="110" height="50" as="geometry" />
        </mxCell>
        <mxCell id="BSxhdLfIgos4IuO5vGoB-4" value="Database" style="html=1;whiteSpace=wrap;" vertex="1" parent="1">
          <mxGeometry x="810" y="45" width="110" height="50" as="geometry" />
        </mxCell>
        <mxCell id="BSxhdLfIgos4IuO5vGoB-5" value="" style="endArrow=none;dashed=1;endFill=0;endSize=12;html=1;rounded=0;" edge="1" parent="1">
          <mxGeometry width="160" relative="1" as="geometry">
            <mxPoint x="105" y="120" as="sourcePoint" />
            <mxPoint x="105" y="2800" as="targetPoint" />
          </mxGeometry>
        </mxCell>
        <mxCell id="BSxhdLfIgos4IuO5vGoB-6" value="" style="endArrow=none;dashed=1;endFill=0;endSize=12;html=1;rounded=0;" edge="1" parent="1" source="BSxhdLfIgos4IuO5vGoB-105">
          <mxGeometry width="160" relative="1" as="geometry">
            <mxPoint x="334.5" y="95" as="sourcePoint" />
            <mxPoint x="335" y="2800" as="targetPoint" />
          </mxGeometry>
        </mxCell>
        <mxCell id="BSxhdLfIgos4IuO5vGoB-7" value="" style="endArrow=none;dashed=1;endFill=0;endSize=12;html=1;rounded=0;" edge="1" parent="1" source="BSxhdLfIgos4IuO5vGoB-107">
          <mxGeometry width="160" relative="1" as="geometry">
            <mxPoint x="604.5" y="95" as="sourcePoint" />
            <mxPoint x="605" y="2800" as="targetPoint" />
          </mxGeometry>
        </mxCell>
        <mxCell id="BSxhdLfIgos4IuO5vGoB-8" value="" style="endArrow=none;dashed=1;endFill=0;endSize=12;html=1;rounded=0;" edge="1" parent="1">
          <mxGeometry width="160" relative="1" as="geometry">
            <mxPoint x="864.5" y="95" as="sourcePoint" />
            <mxPoint x="865" y="2800" as="targetPoint" />
          </mxGeometry>
        </mxCell>
        <mxCell id="BSxhdLfIgos4IuO5vGoB-9" value="&lt;pre&gt;&lt;code class=&quot;!whitespace-pre hljs language-shell&quot;&gt;Requests to view existing &lt;br&gt;reservations&lt;/code&gt;&lt;/pre&gt;" style="text;html=1;align=center;verticalAlign=middle;resizable=0;points=[];autosize=1;strokeColor=none;fillColor=none;" vertex="1" parent="1">
          <mxGeometry x="120" y="140" width="210" height="70" as="geometry" />
        </mxCell>
        <mxCell id="BSxhdLfIgos4IuO5vGoB-10" value="&lt;pre&gt;&lt;code class=&quot;!whitespace-pre hljs language-shell&quot;&gt;Sends request to retrieve &lt;br&gt;reservation data&lt;/code&gt;&lt;/pre&gt;" style="text;html=1;align=center;verticalAlign=middle;resizable=0;points=[];autosize=1;strokeColor=none;fillColor=none;" vertex="1" parent="1">
          <mxGeometry x="370" y="210" width="210" height="70" as="geometry" />
        </mxCell>
        <mxCell id="BSxhdLfIgos4IuO5vGoB-11" value="&lt;pre&gt;&lt;code class=&quot;!whitespace-pre hljs language-shell&quot;&gt;Retrieves reservation data&lt;/code&gt;&lt;/pre&gt;" style="text;html=1;align=center;verticalAlign=middle;resizable=0;points=[];autosize=1;strokeColor=none;fillColor=none;" vertex="1" parent="1">
          <mxGeometry x="640" y="270" width="210" height="50" as="geometry" />
        </mxCell>
        <mxCell id="BSxhdLfIgos4IuO5vGoB-12" value="&lt;pre&gt;&lt;code class=&quot;!whitespace-pre hljs language-shell&quot;&gt;Returns reservation data&lt;/code&gt;&lt;/pre&gt;" style="text;html=1;align=center;verticalAlign=middle;resizable=0;points=[];autosize=1;strokeColor=none;fillColor=none;" vertex="1" parent="1">
          <mxGeometry x="640" y="330" width="190" height="50" as="geometry" />
        </mxCell>
        <mxCell id="BSxhdLfIgos4IuO5vGoB-13" value="&lt;pre&gt;&lt;code class=&quot;!whitespace-pre hljs language-shell&quot;&gt;Receives reservation data from server&lt;/code&gt;&lt;/pre&gt;" style="text;html=1;align=center;verticalAlign=middle;resizable=0;points=[];autosize=1;strokeColor=none;fillColor=none;" vertex="1" parent="1">
          <mxGeometry x="330" y="380" width="280" height="50" as="geometry" />
        </mxCell>
        <mxCell id="BSxhdLfIgos4IuO5vGoB-14" value="&lt;pre&gt;&lt;code class=&quot;!whitespace-pre hljs language-shell&quot;&gt;Displays reservation data&lt;/code&gt;&lt;/pre&gt;" style="text;html=1;align=center;verticalAlign=middle;resizable=0;points=[];autosize=1;strokeColor=none;fillColor=none;" vertex="1" parent="1">
          <mxGeometry x="120" y="430" width="200" height="50" as="geometry" />
        </mxCell>
        <mxCell id="BSxhdLfIgos4IuO5vGoB-15" value="&lt;pre&gt;&lt;code class=&quot;!whitespace-pre hljs language-shell&quot;&gt;Requests to add a new &lt;br&gt;reservation&lt;/code&gt;&lt;/pre&gt;" style="text;html=1;align=center;verticalAlign=middle;resizable=0;points=[];autosize=1;strokeColor=none;fillColor=none;" vertex="1" parent="1">
          <mxGeometry x="130" y="480" width="180" height="70" as="geometry" />
        </mxCell>
        <mxCell id="BSxhdLfIgos4IuO5vGoB-16" value="&lt;pre&gt;&lt;code class=&quot;!whitespace-pre hljs language-shell&quot;&gt;Displays add reservation form&lt;/code&gt;&lt;/pre&gt;" style="text;html=1;align=center;verticalAlign=middle;resizable=0;points=[];autosize=1;strokeColor=none;fillColor=none;" vertex="1" parent="1">
          <mxGeometry x="105" y="550" width="230" height="50" as="geometry" />
        </mxCell>
        <mxCell id="BSxhdLfIgos4IuO5vGoB-17" value="&lt;pre&gt;&lt;code class=&quot;!whitespace-pre hljs language-shell&quot;&gt;Fills  reservation details&lt;span class=&quot;bash&quot;&gt;&lt;/span&gt;&lt;/code&gt;&lt;/pre&gt;" style="text;html=1;align=center;verticalAlign=middle;resizable=0;points=[];autosize=1;strokeColor=none;fillColor=none;" vertex="1" parent="1">
          <mxGeometry x="120" y="610" width="210" height="50" as="geometry" />
        </mxCell>
        <mxCell id="BSxhdLfIgos4IuO5vGoB-18" value="&lt;pre&gt;&lt;code class=&quot;!whitespace-pre hljs language-shell&quot;&gt;Sends request to add reservation &lt;br&gt;to the database&lt;/code&gt;&lt;/pre&gt;" style="text;html=1;align=center;verticalAlign=middle;resizable=0;points=[];autosize=1;strokeColor=none;fillColor=none;" vertex="1" parent="1">
          <mxGeometry x="350" y="660" width="250" height="70" as="geometry" />
        </mxCell>
        <mxCell id="BSxhdLfIgos4IuO5vGoB-19" value="&lt;pre&gt;&lt;code class=&quot;!whitespace-pre hljs language-shell&quot;&gt;Adds reservation to the database&lt;/code&gt;&lt;/pre&gt;" style="text;html=1;align=center;verticalAlign=middle;resizable=0;points=[];autosize=1;strokeColor=none;fillColor=none;" vertex="1" parent="1">
          <mxGeometry x="610" y="730" width="250" height="50" as="geometry" />
        </mxCell>
        <mxCell id="BSxhdLfIgos4IuO5vGoB-20" value="&lt;pre&gt;&lt;code class=&quot;!whitespace-pre hljs language-shell&quot;&gt;Returns success/failure message&lt;/code&gt;&lt;/pre&gt;" style="text;html=1;align=center;verticalAlign=middle;resizable=0;points=[];autosize=1;strokeColor=none;fillColor=none;" vertex="1" parent="1">
          <mxGeometry x="615" y="790" width="240" height="50" as="geometry" />
        </mxCell>
        <mxCell id="BSxhdLfIgos4IuO5vGoB-21" value="&lt;pre&gt;&lt;code class=&quot;!whitespace-pre hljs language-shell&quot;&gt;Receives success/failure message &lt;br&gt;from server&lt;/code&gt;&lt;/pre&gt;" style="text;html=1;align=center;verticalAlign=middle;resizable=0;points=[];autosize=1;strokeColor=none;fillColor=none;" vertex="1" parent="1">
          <mxGeometry x="345" y="830" width="250" height="70" as="geometry" />
        </mxCell>
        <mxCell id="BSxhdLfIgos4IuO5vGoB-22" value="&lt;pre&gt;&lt;code class=&quot;!whitespace-pre hljs language-shell&quot;&gt;Displays success/failure message&lt;/code&gt;&lt;/pre&gt;" style="text;html=1;align=center;verticalAlign=middle;resizable=0;points=[];autosize=1;strokeColor=none;fillColor=none;" vertex="1" parent="1">
          <mxGeometry x="95" y="900" width="250" height="50" as="geometry" />
        </mxCell>
        <mxCell id="BSxhdLfIgos4IuO5vGoB-23" value="&lt;pre&gt;&lt;code class=&quot;!whitespace-pre hljs language-shell&quot;&gt;Requests to update an existing &lt;br&gt;reservation&lt;/code&gt;&lt;/pre&gt;" style="text;html=1;align=center;verticalAlign=middle;resizable=0;points=[];autosize=1;strokeColor=none;fillColor=none;" vertex="1" parent="1">
          <mxGeometry x="100" y="950" width="240" height="70" as="geometry" />
        </mxCell>
        <mxCell id="BSxhdLfIgos4IuO5vGoB-24" value="&lt;pre&gt;&lt;code class=&quot;!whitespace-pre hljs language-shell&quot;&gt;Displays update reservation &lt;br&gt;form&lt;/code&gt;&lt;/pre&gt;" style="text;html=1;align=center;verticalAlign=middle;resizable=0;points=[];autosize=1;strokeColor=none;fillColor=none;" vertex="1" parent="1">
          <mxGeometry x="110" y="1010" width="220" height="70" as="geometry" />
        </mxCell>
        <mxCell id="BSxhdLfIgos4IuO5vGoB-25" value="&lt;pre&gt;&lt;code class=&quot;!whitespace-pre hljs language-shell&quot;&gt;Fills  updated reservation &lt;br&gt;details&lt;span class=&quot;bash&quot;&gt;&lt;/span&gt;&lt;/code&gt;&lt;/pre&gt;" style="text;html=1;align=center;verticalAlign=middle;resizable=0;points=[];autosize=1;strokeColor=none;fillColor=none;" vertex="1" parent="1">
          <mxGeometry x="115" y="1070" width="210" height="70" as="geometry" />
        </mxCell>
        <mxCell id="BSxhdLfIgos4IuO5vGoB-26" value="&lt;pre&gt;&lt;code class=&quot;!whitespace-pre hljs language-shell&quot;&gt;Sends request to update reservation  &lt;br&gt;the database&lt;span class=&quot;bash&quot;&gt;&lt;/span&gt;&lt;/code&gt;&lt;/pre&gt;" style="text;html=1;align=center;verticalAlign=middle;resizable=0;points=[];autosize=1;strokeColor=none;fillColor=none;" vertex="1" parent="1">
          <mxGeometry x="335" y="1128" width="280" height="70" as="geometry" />
        </mxCell>
        <mxCell id="BSxhdLfIgos4IuO5vGoB-27" value="&lt;pre&gt;&lt;code class=&quot;!whitespace-pre hljs language-shell&quot;&gt;Updates reservation  the database&lt;span class=&quot;bash&quot;&gt;&lt;/span&gt;&lt;/code&gt;&lt;/pre&gt;" style="text;html=1;align=center;verticalAlign=middle;resizable=0;points=[];autosize=1;strokeColor=none;fillColor=none;" vertex="1" parent="1">
          <mxGeometry x="610" y="1198" width="250" height="50" as="geometry" />
        </mxCell>
        <mxCell id="BSxhdLfIgos4IuO5vGoB-28" value="&lt;pre&gt;&lt;code class=&quot;!whitespace-pre hljs language-shell&quot;&gt;Returns success/failure message&lt;/code&gt;&lt;/pre&gt;" style="text;html=1;align=center;verticalAlign=middle;resizable=0;points=[];autosize=1;strokeColor=none;fillColor=none;" vertex="1" parent="1">
          <mxGeometry x="615" y="1260" width="240" height="50" as="geometry" />
        </mxCell>
        <mxCell id="BSxhdLfIgos4IuO5vGoB-29" value="&lt;pre&gt;&lt;code class=&quot;!whitespace-pre hljs language-shell&quot;&gt;Receives success/failure message &lt;br&gt;from server&lt;/code&gt;&lt;/pre&gt;" style="text;html=1;align=center;verticalAlign=middle;resizable=0;points=[];autosize=1;strokeColor=none;fillColor=none;" vertex="1" parent="1">
          <mxGeometry x="345" y="1300" width="250" height="70" as="geometry" />
        </mxCell>
        <mxCell id="BSxhdLfIgos4IuO5vGoB-30" value="&lt;pre&gt;&lt;code class=&quot;!whitespace-pre hljs language-shell&quot;&gt;Displays success/failure message&lt;/code&gt;&lt;/pre&gt;" style="text;html=1;align=center;verticalAlign=middle;resizable=0;points=[];autosize=1;strokeColor=none;fillColor=none;" vertex="1" parent="1">
          <mxGeometry x="95" y="1370" width="250" height="50" as="geometry" />
        </mxCell>
        <mxCell id="BSxhdLfIgos4IuO5vGoB-31" value="&lt;pre&gt;&lt;code class=&quot;!whitespace-pre hljs language-shell&quot;&gt;Requests to cancel an existing &lt;br&gt;reservation&lt;/code&gt;&lt;/pre&gt;" style="text;html=1;align=center;verticalAlign=middle;resizable=0;points=[];autosize=1;strokeColor=none;fillColor=none;" vertex="1" parent="1">
          <mxGeometry x="100" y="1420" width="240" height="70" as="geometry" />
        </mxCell>
        <mxCell id="BSxhdLfIgos4IuO5vGoB-32" value="&lt;pre&gt;&lt;code class=&quot;!whitespace-pre hljs language-shell&quot;&gt;Displays cancel reservation form&lt;/code&gt;&lt;/pre&gt;" style="text;html=1;align=center;verticalAlign=middle;resizable=0;points=[];autosize=1;strokeColor=none;fillColor=none;" vertex="1" parent="1">
          <mxGeometry x="95" y="1490" width="250" height="50" as="geometry" />
        </mxCell>
        <mxCell id="BSxhdLfIgos4IuO5vGoB-33" value="&lt;pre&gt;&lt;code class=&quot;!whitespace-pre hljs language-shell&quot;&gt;Selects reservation to cancel&lt;/code&gt;&lt;/pre&gt;" style="text;html=1;align=center;verticalAlign=middle;resizable=0;points=[];autosize=1;strokeColor=none;fillColor=none;" vertex="1" parent="1">
          <mxGeometry x="105" y="1550" width="230" height="50" as="geometry" />
        </mxCell>
        <mxCell id="BSxhdLfIgos4IuO5vGoB-34" value="&lt;pre&gt;&lt;code class=&quot;!whitespace-pre hljs language-shell&quot;&gt;Sends request to remove reservation&lt;br&gt;&lt;/code&gt;&lt;/pre&gt;" style="text;html=1;align=center;verticalAlign=middle;resizable=0;points=[];autosize=1;strokeColor=none;fillColor=none;" vertex="1" parent="1">
          <mxGeometry x="335" y="1600" width="270" height="50" as="geometry" />
        </mxCell>
        <mxCell id="BSxhdLfIgos4IuO5vGoB-35" value="&lt;pre&gt;&lt;code class=&quot;!whitespace-pre hljs language-shell&quot;&gt;Removes reservation from the &lt;br&gt;database&lt;/code&gt;&lt;/pre&gt;" style="text;html=1;align=center;verticalAlign=middle;resizable=0;points=[];autosize=1;strokeColor=none;fillColor=none;" vertex="1" parent="1">
          <mxGeometry x="620" y="1640" width="230" height="70" as="geometry" />
        </mxCell>
        <mxCell id="BSxhdLfIgos4IuO5vGoB-36" value="&lt;pre&gt;&lt;code class=&quot;!whitespace-pre hljs language-shell&quot;&gt;Returns success/failure message&lt;/code&gt;&lt;/pre&gt;" style="text;html=1;align=center;verticalAlign=middle;resizable=0;points=[];autosize=1;strokeColor=none;fillColor=none;" vertex="1" parent="1">
          <mxGeometry x="615" y="1710" width="240" height="50" as="geometry" />
        </mxCell>
        <mxCell id="BSxhdLfIgos4IuO5vGoB-37" value="&lt;pre&gt;&lt;code class=&quot;!whitespace-pre hljs language-shell&quot;&gt;Receives success/failure message&lt;/code&gt;&lt;/pre&gt;" style="text;html=1;align=center;verticalAlign=middle;resizable=0;points=[];autosize=1;strokeColor=none;fillColor=none;" vertex="1" parent="1">
          <mxGeometry x="345" y="1750" width="250" height="50" as="geometry" />
        </mxCell>
        <mxCell id="BSxhdLfIgos4IuO5vGoB-38" value="&lt;pre&gt;&lt;code class=&quot;!whitespace-pre hljs language-shell&quot;&gt;Displays success/failure &lt;br&gt;message&lt;/code&gt;&lt;/pre&gt;" style="text;html=1;align=center;verticalAlign=middle;resizable=0;points=[];autosize=1;strokeColor=none;fillColor=none;" vertex="1" parent="1">
          <mxGeometry x="125" y="1790" width="200" height="70" as="geometry" />
        </mxCell>
        <mxCell id="BSxhdLfIgos4IuO5vGoB-39" value="&lt;pre&gt;&lt;code class=&quot;!whitespace-pre hljs language-shell&quot;&gt;Requests to mark customer as &lt;br&gt;arrived the tour&lt;span class=&quot;bash&quot;&gt;&lt;/span&gt;&lt;/code&gt;&lt;/pre&gt;" style="text;html=1;align=center;verticalAlign=middle;resizable=0;points=[];autosize=1;strokeColor=none;fillColor=none;" vertex="1" parent="1">
          <mxGeometry x="110" y="1848" width="230" height="70" as="geometry" />
        </mxCell>
        <mxCell id="BSxhdLfIgos4IuO5vGoB-40" value="&lt;pre&gt;&lt;code class=&quot;!whitespace-pre hljs language-shell&quot;&gt;Displays arrive  tour form&lt;span class=&quot;bash&quot;&gt;&lt;/span&gt;&lt;/code&gt;&lt;/pre&gt;" style="text;html=1;align=center;verticalAlign=middle;resizable=0;points=[];autosize=1;strokeColor=none;fillColor=none;" vertex="1" parent="1">
          <mxGeometry x="115" y="1910" width="210" height="50" as="geometry" />
        </mxCell>
        <mxCell id="BSxhdLfIgos4IuO5vGoB-41" value="&lt;pre&gt;&lt;code class=&quot;!whitespace-pre hljs language-shell&quot;&gt;Selects the tour package and &lt;br&gt;customer to mark as arrived&lt;/code&gt;&lt;/pre&gt;" style="text;html=1;align=center;verticalAlign=middle;resizable=0;points=[];autosize=1;strokeColor=none;fillColor=none;" vertex="1" parent="1">
          <mxGeometry x="105" y="1960" width="230" height="70" as="geometry" />
        </mxCell>
        <mxCell id="BSxhdLfIgos4IuO5vGoB-44" value="&lt;pre&gt;&lt;code class=&quot;!whitespace-pre hljs language-shell&quot;&gt;Sends request to update reservation &lt;br&gt;status&lt;/code&gt;&lt;/pre&gt;" style="text;html=1;align=center;verticalAlign=middle;resizable=0;points=[];autosize=1;strokeColor=none;fillColor=none;" vertex="1" parent="1">
          <mxGeometry x="335" y="2020" width="280" height="70" as="geometry" />
        </mxCell>
        <mxCell id="BSxhdLfIgos4IuO5vGoB-45" value="&lt;pre&gt;&lt;code class=&quot;!whitespace-pre hljs language-shell&quot;&gt;Updates reservation status&lt;span class=&quot;bash&quot;&gt;&lt;/span&gt;&lt;/code&gt;&lt;/pre&gt;" style="text;html=1;align=center;verticalAlign=middle;resizable=0;points=[];autosize=1;strokeColor=none;fillColor=none;" vertex="1" parent="1">
          <mxGeometry x="630" y="2080" width="210" height="50" as="geometry" />
        </mxCell>
        <mxCell id="BSxhdLfIgos4IuO5vGoB-46" value="&lt;pre&gt;&lt;code class=&quot;!whitespace-pre hljs language-shell&quot;&gt;Returns success/failure message&lt;/code&gt;&lt;/pre&gt;" style="text;html=1;align=center;verticalAlign=middle;resizable=0;points=[];autosize=1;strokeColor=none;fillColor=none;" vertex="1" parent="1">
          <mxGeometry x="615" y="2140" width="240" height="50" as="geometry" />
        </mxCell>
        <mxCell id="BSxhdLfIgos4IuO5vGoB-47" value="&lt;pre&gt;&lt;code class=&quot;!whitespace-pre hljs language-shell&quot;&gt;Receives success/failure message&lt;/code&gt;&lt;/pre&gt;" style="text;html=1;align=center;verticalAlign=middle;resizable=0;points=[];autosize=1;strokeColor=none;fillColor=none;" vertex="1" parent="1">
          <mxGeometry x="345" y="2190" width="250" height="50" as="geometry" />
        </mxCell>
        <mxCell id="BSxhdLfIgos4IuO5vGoB-48" value="&lt;pre&gt;&lt;code class=&quot;!whitespace-pre hljs language-shell&quot;&gt;Displays success/failure &lt;br&gt;message&lt;/code&gt;&lt;/pre&gt;" style="text;html=1;align=center;verticalAlign=middle;resizable=0;points=[];autosize=1;strokeColor=none;fillColor=none;" vertex="1" parent="1">
          <mxGeometry x="120" y="2230" width="200" height="70" as="geometry" />
        </mxCell>
        <mxCell id="BSxhdLfIgos4IuO5vGoB-49" value="&lt;pre&gt;&lt;code class=&quot;!whitespace-pre hljs language-shell&quot;&gt;Requests to mark tour as &lt;br&gt;complete&lt;/code&gt;&lt;/pre&gt;" style="text;html=1;align=center;verticalAlign=middle;resizable=0;points=[];autosize=1;strokeColor=none;fillColor=none;" vertex="1" parent="1">
          <mxGeometry x="125" y="2290" width="200" height="70" as="geometry" />
        </mxCell>
        <mxCell id="BSxhdLfIgos4IuO5vGoB-50" value="&lt;pre&gt;&lt;code class=&quot;!whitespace-pre hljs language-shell&quot;&gt;Displays complete tour form&lt;/code&gt;&lt;/pre&gt;" style="text;html=1;align=center;verticalAlign=middle;resizable=0;points=[];autosize=1;strokeColor=none;fillColor=none;" vertex="1" parent="1">
          <mxGeometry x="115" y="2360" width="210" height="50" as="geometry" />
        </mxCell>
        <mxCell id="BSxhdLfIgos4IuO5vGoB-51" value="&lt;pre&gt;&lt;code class=&quot;!whitespace-pre hljs language-shell&quot;&gt;Selects the tour package to &lt;br&gt;mark as complete&lt;/code&gt;&lt;/pre&gt;" style="text;html=1;align=center;verticalAlign=middle;resizable=0;points=[];autosize=1;strokeColor=none;fillColor=none;" vertex="1" parent="1">
          <mxGeometry x="115" y="2410" width="220" height="70" as="geometry" />
        </mxCell>
        <mxCell id="BSxhdLfIgos4IuO5vGoB-52" value="&lt;pre&gt;&lt;code class=&quot;!whitespace-pre hljs language-shell&quot;&gt;Sends request to update reservation &lt;br&gt;status &lt;span class=&quot;bash&quot;&gt;&lt;/span&gt;&lt;/code&gt;&lt;/pre&gt;" style="text;html=1;align=center;verticalAlign=middle;resizable=0;points=[];autosize=1;strokeColor=none;fillColor=none;" vertex="1" parent="1">
          <mxGeometry x="335" y="2470" width="280" height="70" as="geometry" />
        </mxCell>
        <mxCell id="BSxhdLfIgos4IuO5vGoB-53" value="&lt;pre&gt;&lt;code class=&quot;!whitespace-pre hljs language-shell&quot;&gt;Updates reservation status&lt;/code&gt;&lt;/pre&gt;" style="text;html=1;align=center;verticalAlign=middle;resizable=0;points=[];autosize=1;strokeColor=none;fillColor=none;" vertex="1" parent="1">
          <mxGeometry x="640" y="2530" width="210" height="50" as="geometry" />
        </mxCell>
        <mxCell id="BSxhdLfIgos4IuO5vGoB-54" value="&lt;pre&gt;&lt;code class=&quot;!whitespace-pre hljs language-shell&quot;&gt;Returns success/failure message&lt;/code&gt;&lt;/pre&gt;" style="text;html=1;align=center;verticalAlign=middle;resizable=0;points=[];autosize=1;strokeColor=none;fillColor=none;" vertex="1" parent="1">
          <mxGeometry x="615" y="2588" width="240" height="50" as="geometry" />
        </mxCell>
        <mxCell id="BSxhdLfIgos4IuO5vGoB-55" value="&lt;pre&gt;&lt;code class=&quot;!whitespace-pre hljs language-shell&quot;&gt;Receives success/failure message&lt;/code&gt;&lt;/pre&gt;" style="text;html=1;align=center;verticalAlign=middle;resizable=0;points=[];autosize=1;strokeColor=none;fillColor=none;" vertex="1" parent="1">
          <mxGeometry x="345" y="2638" width="250" height="50" as="geometry" />
        </mxCell>
        <mxCell id="BSxhdLfIgos4IuO5vGoB-56" value="&lt;pre&gt;&lt;code class=&quot;!whitespace-pre hljs language-shell&quot;&gt;Displays success/failure &lt;br&gt;message&lt;/code&gt;&lt;/pre&gt;" style="text;html=1;align=center;verticalAlign=middle;resizable=0;points=[];autosize=1;strokeColor=none;fillColor=none;" vertex="1" parent="1">
          <mxGeometry x="125" y="2688" width="200" height="70" as="geometry" />
        </mxCell>
        <mxCell id="BSxhdLfIgos4IuO5vGoB-57" value="" style="endArrow=block;endFill=0;endSize=12;html=1;rounded=0;entryX=1;entryY=0.729;entryDx=0;entryDy=0;entryPerimeter=0;" edge="1" parent="1" target="BSxhdLfIgos4IuO5vGoB-9">
          <mxGeometry width="160" relative="1" as="geometry">
            <mxPoint x="110" y="190" as="sourcePoint" />
            <mxPoint x="270" y="190" as="targetPoint" />
          </mxGeometry>
        </mxCell>
        <mxCell id="BSxhdLfIgos4IuO5vGoB-58" value="" style="endArrow=block;endFill=0;endSize=12;html=1;rounded=0;entryX=1;entryY=0.729;entryDx=0;entryDy=0;entryPerimeter=0;" edge="1" parent="1">
          <mxGeometry width="160" relative="1" as="geometry">
            <mxPoint x="330" y="471" as="sourcePoint" />
            <mxPoint x="110" y="470" as="targetPoint" />
          </mxGeometry>
        </mxCell>
        <mxCell id="BSxhdLfIgos4IuO5vGoB-60" value="" style="endArrow=block;endFill=0;endSize=12;html=1;rounded=0;entryX=1;entryY=0.729;entryDx=0;entryDy=0;entryPerimeter=0;" edge="1" parent="1">
          <mxGeometry width="160" relative="1" as="geometry">
            <mxPoint x="110" y="530" as="sourcePoint" />
            <mxPoint x="330" y="531" as="targetPoint" />
          </mxGeometry>
        </mxCell>
        <mxCell id="BSxhdLfIgos4IuO5vGoB-61" value="" style="endArrow=block;endFill=0;endSize=12;html=1;rounded=0;entryX=1;entryY=0.729;entryDx=0;entryDy=0;entryPerimeter=0;" edge="1" parent="1">
          <mxGeometry width="160" relative="1" as="geometry">
            <mxPoint x="330" y="591" as="sourcePoint" />
            <mxPoint x="110" y="590" as="targetPoint" />
          </mxGeometry>
        </mxCell>
        <mxCell id="BSxhdLfIgos4IuO5vGoB-62" value="" style="endArrow=block;endFill=0;endSize=12;html=1;rounded=0;entryX=1;entryY=0.729;entryDx=0;entryDy=0;entryPerimeter=0;" edge="1" parent="1">
          <mxGeometry width="160" relative="1" as="geometry">
            <mxPoint x="110" y="650" as="sourcePoint" />
            <mxPoint x="330" y="651" as="targetPoint" />
          </mxGeometry>
        </mxCell>
        <mxCell id="BSxhdLfIgos4IuO5vGoB-63" value="" style="endArrow=block;endFill=0;endSize=12;html=1;rounded=0;entryX=1;entryY=0.729;entryDx=0;entryDy=0;entryPerimeter=0;" edge="1" parent="1">
          <mxGeometry width="160" relative="1" as="geometry">
            <mxPoint x="330" y="941" as="sourcePoint" />
            <mxPoint x="110" y="940" as="targetPoint" />
          </mxGeometry>
        </mxCell>
        <mxCell id="BSxhdLfIgos4IuO5vGoB-64" value="" style="endArrow=block;endFill=0;endSize=12;html=1;rounded=0;entryX=1;entryY=0.729;entryDx=0;entryDy=0;entryPerimeter=0;" edge="1" parent="1">
          <mxGeometry width="160" relative="1" as="geometry">
            <mxPoint x="110" y="1000" as="sourcePoint" />
            <mxPoint x="330" y="1001" as="targetPoint" />
          </mxGeometry>
        </mxCell>
        <mxCell id="BSxhdLfIgos4IuO5vGoB-65" value="" style="endArrow=block;endFill=0;endSize=12;html=1;rounded=0;entryX=1;entryY=0.729;entryDx=0;entryDy=0;entryPerimeter=0;" edge="1" parent="1">
          <mxGeometry width="160" relative="1" as="geometry">
            <mxPoint x="330" y="1061" as="sourcePoint" />
            <mxPoint x="110" y="1060" as="targetPoint" />
          </mxGeometry>
        </mxCell>
        <mxCell id="BSxhdLfIgos4IuO5vGoB-66" value="" style="endArrow=block;endFill=0;endSize=12;html=1;rounded=0;entryX=1;entryY=0.729;entryDx=0;entryDy=0;entryPerimeter=0;" edge="1" parent="1">
          <mxGeometry width="160" relative="1" as="geometry">
            <mxPoint x="110" y="1120" as="sourcePoint" />
            <mxPoint x="330" y="1121" as="targetPoint" />
          </mxGeometry>
        </mxCell>
        <mxCell id="BSxhdLfIgos4IuO5vGoB-68" value="" style="endArrow=block;endFill=0;endSize=12;html=1;rounded=0;entryX=1;entryY=0.729;entryDx=0;entryDy=0;entryPerimeter=0;" edge="1" parent="1">
          <mxGeometry width="160" relative="1" as="geometry">
            <mxPoint x="330" y="1411" as="sourcePoint" />
            <mxPoint x="110" y="1410" as="targetPoint" />
          </mxGeometry>
        </mxCell>
        <mxCell id="BSxhdLfIgos4IuO5vGoB-69" value="" style="endArrow=block;endFill=0;endSize=12;html=1;rounded=0;entryX=1;entryY=0.729;entryDx=0;entryDy=0;entryPerimeter=0;" edge="1" parent="1">
          <mxGeometry width="160" relative="1" as="geometry">
            <mxPoint x="110" y="1470" as="sourcePoint" />
            <mxPoint x="330" y="1471" as="targetPoint" />
          </mxGeometry>
        </mxCell>
        <mxCell id="BSxhdLfIgos4IuO5vGoB-70" value="" style="endArrow=block;endFill=0;endSize=12;html=1;rounded=0;entryX=1;entryY=0.729;entryDx=0;entryDy=0;entryPerimeter=0;" edge="1" parent="1">
          <mxGeometry width="160" relative="1" as="geometry">
            <mxPoint x="330" y="1531" as="sourcePoint" />
            <mxPoint x="110" y="1530" as="targetPoint" />
          </mxGeometry>
        </mxCell>
        <mxCell id="BSxhdLfIgos4IuO5vGoB-71" value="" style="endArrow=block;endFill=0;endSize=12;html=1;rounded=0;entryX=1;entryY=0.729;entryDx=0;entryDy=0;entryPerimeter=0;" edge="1" parent="1">
          <mxGeometry width="160" relative="1" as="geometry">
            <mxPoint x="110" y="1590" as="sourcePoint" />
            <mxPoint x="330" y="1591" as="targetPoint" />
          </mxGeometry>
        </mxCell>
        <mxCell id="BSxhdLfIgos4IuO5vGoB-72" value="" style="endArrow=block;endFill=0;endSize=12;html=1;rounded=0;entryX=1;entryY=0.729;entryDx=0;entryDy=0;entryPerimeter=0;" edge="1" parent="1">
          <mxGeometry width="160" relative="1" as="geometry">
            <mxPoint x="330" y="1841" as="sourcePoint" />
            <mxPoint x="110" y="1840" as="targetPoint" />
          </mxGeometry>
        </mxCell>
        <mxCell id="BSxhdLfIgos4IuO5vGoB-73" value="" style="endArrow=block;endFill=0;endSize=12;html=1;rounded=0;entryX=1;entryY=0.729;entryDx=0;entryDy=0;entryPerimeter=0;" edge="1" parent="1">
          <mxGeometry width="160" relative="1" as="geometry">
            <mxPoint x="110" y="1900" as="sourcePoint" />
            <mxPoint x="330" y="1901" as="targetPoint" />
          </mxGeometry>
        </mxCell>
        <mxCell id="BSxhdLfIgos4IuO5vGoB-74" value="" style="endArrow=block;endFill=0;endSize=12;html=1;rounded=0;entryX=1;entryY=0.729;entryDx=0;entryDy=0;entryPerimeter=0;" edge="1" parent="1">
          <mxGeometry width="160" relative="1" as="geometry">
            <mxPoint x="330" y="1951" as="sourcePoint" />
            <mxPoint x="110" y="1950" as="targetPoint" />
          </mxGeometry>
        </mxCell>
        <mxCell id="BSxhdLfIgos4IuO5vGoB-75" value="" style="endArrow=block;endFill=0;endSize=12;html=1;rounded=0;entryX=1;entryY=0.729;entryDx=0;entryDy=0;entryPerimeter=0;" edge="1" parent="1">
          <mxGeometry width="160" relative="1" as="geometry">
            <mxPoint x="110" y="2010" as="sourcePoint" />
            <mxPoint x="330" y="2011" as="targetPoint" />
          </mxGeometry>
        </mxCell>
        <mxCell id="BSxhdLfIgos4IuO5vGoB-76" value="" style="endArrow=block;endFill=0;endSize=12;html=1;rounded=0;entryX=1;entryY=0.729;entryDx=0;entryDy=0;entryPerimeter=0;" edge="1" parent="1">
          <mxGeometry width="160" relative="1" as="geometry">
            <mxPoint x="330" y="2281" as="sourcePoint" />
            <mxPoint x="110" y="2280" as="targetPoint" />
          </mxGeometry>
        </mxCell>
        <mxCell id="BSxhdLfIgos4IuO5vGoB-77" value="" style="endArrow=block;endFill=0;endSize=12;html=1;rounded=0;entryX=1;entryY=0.729;entryDx=0;entryDy=0;entryPerimeter=0;" edge="1" parent="1">
          <mxGeometry width="160" relative="1" as="geometry">
            <mxPoint x="110" y="2340" as="sourcePoint" />
            <mxPoint x="330" y="2341" as="targetPoint" />
          </mxGeometry>
        </mxCell>
        <mxCell id="BSxhdLfIgos4IuO5vGoB-78" value="" style="endArrow=block;endFill=0;endSize=12;html=1;rounded=0;entryX=1;entryY=0.729;entryDx=0;entryDy=0;entryPerimeter=0;" edge="1" parent="1">
          <mxGeometry width="160" relative="1" as="geometry">
            <mxPoint x="330" y="2401" as="sourcePoint" />
            <mxPoint x="110" y="2400" as="targetPoint" />
          </mxGeometry>
        </mxCell>
        <mxCell id="BSxhdLfIgos4IuO5vGoB-79" value="" style="endArrow=block;endFill=0;endSize=12;html=1;rounded=0;entryX=1;entryY=0.729;entryDx=0;entryDy=0;entryPerimeter=0;" edge="1" parent="1">
          <mxGeometry width="160" relative="1" as="geometry">
            <mxPoint x="110" y="2460" as="sourcePoint" />
            <mxPoint x="330" y="2461" as="targetPoint" />
          </mxGeometry>
        </mxCell>
        <mxCell id="BSxhdLfIgos4IuO5vGoB-80" value="" style="endArrow=block;endFill=0;endSize=12;html=1;rounded=0;entryX=1;entryY=0.729;entryDx=0;entryDy=0;entryPerimeter=0;" edge="1" parent="1">
          <mxGeometry width="160" relative="1" as="geometry">
            <mxPoint x="330" y="2741" as="sourcePoint" />
            <mxPoint x="110" y="2740" as="targetPoint" />
          </mxGeometry>
        </mxCell>
        <mxCell id="BSxhdLfIgos4IuO5vGoB-81" value="" style="endArrow=block;endFill=0;endSize=12;html=1;rounded=0;" edge="1" parent="1">
          <mxGeometry width="160" relative="1" as="geometry">
            <mxPoint x="340" y="260" as="sourcePoint" />
            <mxPoint x="600" y="261" as="targetPoint" />
          </mxGeometry>
        </mxCell>
        <mxCell id="BSxhdLfIgos4IuO5vGoB-82" value="" style="endArrow=block;endFill=0;endSize=12;html=1;rounded=0;" edge="1" parent="1">
          <mxGeometry width="160" relative="1" as="geometry">
            <mxPoint x="600" y="421" as="sourcePoint" />
            <mxPoint x="340" y="420" as="targetPoint" />
          </mxGeometry>
        </mxCell>
        <mxCell id="BSxhdLfIgos4IuO5vGoB-83" value="" style="endArrow=block;endFill=0;endSize=12;html=1;rounded=0;" edge="1" parent="1">
          <mxGeometry width="160" relative="1" as="geometry">
            <mxPoint x="340" y="710" as="sourcePoint" />
            <mxPoint x="600" y="711" as="targetPoint" />
          </mxGeometry>
        </mxCell>
        <mxCell id="BSxhdLfIgos4IuO5vGoB-84" value="" style="endArrow=block;endFill=0;endSize=12;html=1;rounded=0;" edge="1" parent="1">
          <mxGeometry width="160" relative="1" as="geometry">
            <mxPoint x="600" y="881" as="sourcePoint" />
            <mxPoint x="340" y="880" as="targetPoint" />
          </mxGeometry>
        </mxCell>
        <mxCell id="BSxhdLfIgos4IuO5vGoB-85" value="" style="endArrow=block;endFill=0;endSize=12;html=1;rounded=0;" edge="1" parent="1">
          <mxGeometry width="160" relative="1" as="geometry">
            <mxPoint x="340" y="1180" as="sourcePoint" />
            <mxPoint x="600" y="1181" as="targetPoint" />
          </mxGeometry>
        </mxCell>
        <mxCell id="BSxhdLfIgos4IuO5vGoB-86" value="" style="endArrow=block;endFill=0;endSize=12;html=1;rounded=0;" edge="1" parent="1">
          <mxGeometry width="160" relative="1" as="geometry">
            <mxPoint x="600" y="1351" as="sourcePoint" />
            <mxPoint x="340" y="1350" as="targetPoint" />
          </mxGeometry>
        </mxCell>
        <mxCell id="BSxhdLfIgos4IuO5vGoB-87" value="" style="endArrow=block;endFill=0;endSize=12;html=1;rounded=0;" edge="1" parent="1">
          <mxGeometry width="160" relative="1" as="geometry">
            <mxPoint x="340" y="1640" as="sourcePoint" />
            <mxPoint x="600" y="1641" as="targetPoint" />
          </mxGeometry>
        </mxCell>
        <mxCell id="BSxhdLfIgos4IuO5vGoB-88" value="" style="endArrow=block;endFill=0;endSize=12;html=1;rounded=0;" edge="1" parent="1">
          <mxGeometry width="160" relative="1" as="geometry">
            <mxPoint x="600" y="1791" as="sourcePoint" />
            <mxPoint x="340" y="1790" as="targetPoint" />
          </mxGeometry>
        </mxCell>
        <mxCell id="BSxhdLfIgos4IuO5vGoB-89" value="" style="endArrow=block;endFill=0;endSize=12;html=1;rounded=0;" edge="1" parent="1">
          <mxGeometry width="160" relative="1" as="geometry">
            <mxPoint x="340" y="2070" as="sourcePoint" />
            <mxPoint x="600" y="2071" as="targetPoint" />
          </mxGeometry>
        </mxCell>
        <mxCell id="BSxhdLfIgos4IuO5vGoB-90" value="" style="endArrow=block;endFill=0;endSize=12;html=1;rounded=0;" edge="1" parent="1">
          <mxGeometry width="160" relative="1" as="geometry">
            <mxPoint x="600" y="2231" as="sourcePoint" />
            <mxPoint x="340" y="2230" as="targetPoint" />
          </mxGeometry>
        </mxCell>
        <mxCell id="BSxhdLfIgos4IuO5vGoB-91" value="" style="endArrow=block;endFill=0;endSize=12;html=1;rounded=0;" edge="1" parent="1">
          <mxGeometry width="160" relative="1" as="geometry">
            <mxPoint x="340" y="2520" as="sourcePoint" />
            <mxPoint x="600" y="2521" as="targetPoint" />
          </mxGeometry>
        </mxCell>
        <mxCell id="BSxhdLfIgos4IuO5vGoB-92" value="" style="endArrow=block;endFill=0;endSize=12;html=1;rounded=0;" edge="1" parent="1">
          <mxGeometry width="160" relative="1" as="geometry">
            <mxPoint x="600" y="2681" as="sourcePoint" />
            <mxPoint x="340" y="2680" as="targetPoint" />
          </mxGeometry>
        </mxCell>
        <mxCell id="BSxhdLfIgos4IuO5vGoB-93" value="" style="endArrow=block;endFill=0;endSize=12;html=1;rounded=0;" edge="1" parent="1">
          <mxGeometry width="160" relative="1" as="geometry">
            <mxPoint x="610" y="310" as="sourcePoint" />
            <mxPoint x="860" y="310" as="targetPoint" />
          </mxGeometry>
        </mxCell>
        <mxCell id="BSxhdLfIgos4IuO5vGoB-94" value="" style="endArrow=block;endFill=0;endSize=12;html=1;rounded=0;" edge="1" parent="1">
          <mxGeometry width="160" relative="1" as="geometry">
            <mxPoint x="860" y="370" as="sourcePoint" />
            <mxPoint x="610" y="370" as="targetPoint" />
          </mxGeometry>
        </mxCell>
        <mxCell id="BSxhdLfIgos4IuO5vGoB-95" value="" style="endArrow=block;endFill=0;endSize=12;html=1;rounded=0;" edge="1" parent="1">
          <mxGeometry width="160" relative="1" as="geometry">
            <mxPoint x="610" y="770" as="sourcePoint" />
            <mxPoint x="860" y="770" as="targetPoint" />
          </mxGeometry>
        </mxCell>
        <mxCell id="BSxhdLfIgos4IuO5vGoB-96" value="" style="endArrow=block;endFill=0;endSize=12;html=1;rounded=0;" edge="1" parent="1">
          <mxGeometry width="160" relative="1" as="geometry">
            <mxPoint x="860" y="830" as="sourcePoint" />
            <mxPoint x="610" y="830" as="targetPoint" />
          </mxGeometry>
        </mxCell>
        <mxCell id="BSxhdLfIgos4IuO5vGoB-97" value="" style="endArrow=block;endFill=0;endSize=12;html=1;rounded=0;" edge="1" parent="1">
          <mxGeometry width="160" relative="1" as="geometry">
            <mxPoint x="610" y="1240" as="sourcePoint" />
            <mxPoint x="860" y="1240" as="targetPoint" />
          </mxGeometry>
        </mxCell>
        <mxCell id="BSxhdLfIgos4IuO5vGoB-98" value="" style="endArrow=block;endFill=0;endSize=12;html=1;rounded=0;" edge="1" parent="1">
          <mxGeometry width="160" relative="1" as="geometry">
            <mxPoint x="860" y="1300" as="sourcePoint" />
            <mxPoint x="610" y="1300" as="targetPoint" />
          </mxGeometry>
        </mxCell>
        <mxCell id="BSxhdLfIgos4IuO5vGoB-99" value="" style="endArrow=block;endFill=0;endSize=12;html=1;rounded=0;" edge="1" parent="1">
          <mxGeometry width="160" relative="1" as="geometry">
            <mxPoint x="610" y="1690" as="sourcePoint" />
            <mxPoint x="860" y="1690" as="targetPoint" />
          </mxGeometry>
        </mxCell>
        <mxCell id="BSxhdLfIgos4IuO5vGoB-100" value="" style="endArrow=block;endFill=0;endSize=12;html=1;rounded=0;" edge="1" parent="1">
          <mxGeometry width="160" relative="1" as="geometry">
            <mxPoint x="860" y="1750" as="sourcePoint" />
            <mxPoint x="610" y="1750" as="targetPoint" />
          </mxGeometry>
        </mxCell>
        <mxCell id="BSxhdLfIgos4IuO5vGoB-101" value="" style="endArrow=block;endFill=0;endSize=12;html=1;rounded=0;" edge="1" parent="1">
          <mxGeometry width="160" relative="1" as="geometry">
            <mxPoint x="610" y="2120" as="sourcePoint" />
            <mxPoint x="860" y="2120" as="targetPoint" />
          </mxGeometry>
        </mxCell>
        <mxCell id="BSxhdLfIgos4IuO5vGoB-102" value="" style="endArrow=block;endFill=0;endSize=12;html=1;rounded=0;" edge="1" parent="1">
          <mxGeometry width="160" relative="1" as="geometry">
            <mxPoint x="860" y="2180" as="sourcePoint" />
            <mxPoint x="610" y="2180" as="targetPoint" />
          </mxGeometry>
        </mxCell>
        <mxCell id="BSxhdLfIgos4IuO5vGoB-103" value="" style="endArrow=block;endFill=0;endSize=12;html=1;rounded=0;" edge="1" parent="1">
          <mxGeometry width="160" relative="1" as="geometry">
            <mxPoint x="610" y="2570" as="sourcePoint" />
            <mxPoint x="860" y="2570" as="targetPoint" />
          </mxGeometry>
        </mxCell>
        <mxCell id="BSxhdLfIgos4IuO5vGoB-104" value="" style="endArrow=block;endFill=0;endSize=12;html=1;rounded=0;" edge="1" parent="1">
          <mxGeometry width="160" relative="1" as="geometry">
            <mxPoint x="860" y="2630" as="sourcePoint" />
            <mxPoint x="610" y="2630" as="targetPoint" />
          </mxGeometry>
        </mxCell>
        <mxCell id="BSxhdLfIgos4IuO5vGoB-106" value="" style="endArrow=block;dashed=1;endFill=0;endSize=12;html=1;rounded=0;" edge="1" parent="1" target="BSxhdLfIgos4IuO5vGoB-105">
          <mxGeometry width="160" relative="1" as="geometry">
            <mxPoint x="334.5" y="95" as="sourcePoint" />
            <mxPoint x="335" y="2800" as="targetPoint" />
          </mxGeometry>
        </mxCell>
        <mxCell id="BSxhdLfIgos4IuO5vGoB-105" value="" style="html=1;points=[];perimeter=orthogonalPerimeter;outlineConnect=0;targetShapes=umlLifeline;portConstraint=eastwest;newEdgeStyle={&quot;edgeStyle&quot;:&quot;elbowEdgeStyle&quot;,&quot;elbow&quot;:&quot;vertical&quot;,&quot;curved&quot;:0,&quot;rounded&quot;:0};" vertex="1" parent="1">
          <mxGeometry x="330" y="170" width="10" height="2590" as="geometry" />
        </mxCell>
        <mxCell id="BSxhdLfIgos4IuO5vGoB-108" value="" style="endArrow=block;dashed=1;endFill=0;endSize=12;html=1;rounded=0;" edge="1" parent="1" target="BSxhdLfIgos4IuO5vGoB-107">
          <mxGeometry width="160" relative="1" as="geometry">
            <mxPoint x="604.5" y="95" as="sourcePoint" />
            <mxPoint x="605" y="2800" as="targetPoint" />
          </mxGeometry>
        </mxCell>
        <mxCell id="BSxhdLfIgos4IuO5vGoB-107" value="" style="html=1;points=[];perimeter=orthogonalPerimeter;outlineConnect=0;targetShapes=umlLifeline;portConstraint=eastwest;newEdgeStyle={&quot;edgeStyle&quot;:&quot;elbowEdgeStyle&quot;,&quot;elbow&quot;:&quot;vertical&quot;,&quot;curved&quot;:0,&quot;rounded&quot;:0};" vertex="1" parent="1">
          <mxGeometry x="600" y="240" width="10" height="2460" as="geometry" />
        </mxCell>
        <mxCell id="BSxhdLfIgos4IuO5vGoB-109" value="" style="html=1;points=[];perimeter=orthogonalPerimeter;outlineConnect=0;targetShapes=umlLifeline;portConstraint=eastwest;newEdgeStyle={&quot;edgeStyle&quot;:&quot;elbowEdgeStyle&quot;,&quot;elbow&quot;:&quot;vertical&quot;,&quot;curved&quot;:0,&quot;rounded&quot;:0};" vertex="1" parent="1">
          <mxGeometry x="860" y="290" width="10" height="2350" as="geometry" />
        </mxCell>
      </root>
    </mxGraphModel>
  </diagram>
</mxfile>
